<svg width="1061" height="468" viewBox="0 0 1061 468" fill="none" xmlns="http://www.w3.org/2000/svg">
<path fill-rule="evenodd" clip-rule="evenodd" d="M530.5 -5.72956C278.531 -5.72956 74.27 198.532 74.27 450.5C74.27 702.469 278.531 906.73 530.5 906.73C782.469 906.73 986.73 702.469 986.73 450.5C986.73 198.532 782.469 -5.72956 530.5 -5.72956ZM3.53662 450.5C3.53662 159.467 239.466 -76.4629 530.5 -76.4629C821.534 -76.4629 1057.46 159.467 1057.46 450.5C1057.46 741.534 821.534 977.464 530.5 977.464C239.466 977.464 3.53662 741.534 3.53662 450.5Z" fill="url(#paint0_linear_1_1232)" fill-opacity="0.04"/>
<path fill-rule="evenodd" clip-rule="evenodd" d="M530.5 110.979C342.988 110.979 190.98 262.988 190.98 450.499C190.98 638.011 342.988 790.019 530.5 790.019C718.012 790.019 870.02 638.011 870.02 450.499C870.02 262.988 718.012 110.979 530.5 110.979ZM120.247 450.499C120.247 223.923 303.923 40.2461 530.5 40.2461C757.077 40.2461 940.753 223.923 940.753 450.499C940.753 677.076 757.077 860.753 530.5 860.753C303.923 860.753 120.247 677.076 120.247 450.499Z" fill="url(#paint1_linear_1_1232)" fill-opacity="0.04"/>
<path fill-rule="evenodd" clip-rule="evenodd" d="M530.5 241.839C415.258 241.839 321.837 335.261 321.837 450.502C321.837 565.744 415.258 659.165 530.5 659.165C645.742 659.165 739.163 565.744 739.163 450.502C739.163 335.261 645.742 241.839 530.5 241.839ZM251.103 450.502C251.103 296.196 376.193 171.105 530.5 171.105C684.806 171.105 809.897 296.196 809.897 450.502C809.897 604.809 684.806 729.899 530.5 729.899C376.193 729.899 251.103 604.809 251.103 450.502Z" fill="url(#paint2_linear_1_1232)" fill-opacity="0.04"/>
<path fill-rule="evenodd" clip-rule="evenodd" d="M530.5 372.694C487.529 372.694 452.693 407.529 452.693 450.501C452.693 493.472 487.529 528.308 530.5 528.308C573.471 528.308 608.307 493.472 608.307 450.501C608.307 407.529 573.471 372.694 530.5 372.694ZM381.96 450.501C381.96 368.465 448.464 301.961 530.5 301.961C612.536 301.961 679.04 368.465 679.04 450.501C679.04 532.537 612.536 599.041 530.5 599.041C448.464 599.041 381.96 532.537 381.96 450.501Z" fill="url(#paint3_linear_1_1232)" fill-opacity="0.04"/>
<defs>
<linearGradient id="paint0_linear_1_1232" x1="530.5" y1="-76.4629" x2="530.5" y2="977.464" gradientUnits="userSpaceOnUse">
<stop stop-opacity="0.71"/>
<stop offset="0.675" stop-opacity="0"/>
</linearGradient>
<linearGradient id="paint1_linear_1_1232" x1="530.5" y1="40.2461" x2="530.5" y2="860.753" gradientUnits="userSpaceOnUse">
<stop stop-opacity="0.71"/>
<stop offset="0.675" stop-opacity="0"/>
</linearGradient>
<linearGradient id="paint2_linear_1_1232" x1="530.5" y1="171.105" x2="530.5" y2="729.899" gradientUnits="userSpaceOnUse">
<stop stop-opacity="0.71"/>
<stop offset="0.675" stop-opacity="0"/>
</linearGradient>
<linearGradient id="paint3_linear_1_1232" x1="530.5" y1="301.961" x2="530.5" y2="599.041" gradientUnits="userSpaceOnUse">
<stop stop-opacity="0.71"/>
<stop offset="0.675" stop-opacity="0"/>
</linearGradient>
</defs>
</svg>
