<svg width="222" height="40" viewBox="0 0 222 40" fill="none" xmlns="http://www.w3.org/2000/svg">
<path d="M12.3716 39.9992H0L0.104256 1.63334C0.104256 0.729791 0.834042 0 1.73759 0H10.8425C11.7461 0 12.4759 0.729791 12.4759 1.63334L12.3716 39.9992Z" fill="#383838"/>
<path d="M34.856 39.9992H22.4844L22.5539 3.78794C22.5539 2.98865 23.2142 2.32837 24.0135 2.32837H34.5085C34.7517 2.32837 34.9255 2.53687 34.9255 2.74538L34.856 39.9992Z" fill="#383838"/>
<path d="M57.0624 1.07725C42.2234 38.5396 34.8213 39.9992 34.8213 39.9992H22.4497C22.4497 39.9992 39.6866 20.295 44.8993 0.660228C44.9688 0.382214 45.2121 0.173706 45.5249 0.173706H56.4369C56.9234 0.173706 57.2362 0.660232 57.0624 1.07725Z" fill="#011F11"/>
<path d="M34.3 2.32837C34.6127 2.32837 34.8212 2.64113 34.6822 2.91914C19.739 40.6595 12.3369 39.9992 12.3369 39.9992H0C0 39.9992 16.8893 22.7971 22.3106 3.37092C22.4844 2.74539 23.0404 2.32837 23.7007 2.32837H34.3Z" fill="#011F11"/>
<path d="M64.673 31.068H62.1362L57.0972 16.0553H59.5645L63.422 27.4886L67.2447 16.0553H69.8511L73.6737 27.4886L77.4964 16.0553H79.9986L74.9943 31.0333H72.4227L68.5305 19.4957L64.673 31.068Z" fill="#011F11"/>
<path d="M88.4084 31.4503C87.0183 31.4503 85.7673 31.1028 84.6552 30.373C83.5084 29.678 82.6048 28.705 81.9446 27.5234C81.2843 26.3418 80.9368 25.0213 80.9368 23.5617C80.9368 22.4497 81.1453 21.4418 81.5275 20.4688C81.9098 19.5305 82.4658 18.6617 83.1261 17.9667C83.8212 17.2369 84.6204 16.6809 85.524 16.2638C86.4275 15.8468 87.4006 15.6383 88.4431 15.6383C89.59 15.6383 90.5978 15.8816 91.5708 16.3333C92.5091 16.7851 93.3084 17.4106 94.0034 18.2447C94.6637 19.044 95.185 19.9823 95.5325 21.0596C95.88 22.1369 95.9843 23.2837 95.9148 24.5H83.6822C83.7864 25.3688 84.0644 26.0986 84.5162 26.7589C84.968 27.4191 85.524 27.9404 86.1843 28.3227C86.8793 28.705 87.6438 28.9135 88.4779 28.9135C89.3814 28.9135 90.1807 28.6702 90.9105 28.2184C91.6403 27.7667 92.2311 27.1064 92.6828 26.3071L95.2545 26.8979C94.6637 28.2184 93.7602 29.3305 92.5438 30.1645C91.258 31.0333 89.9027 31.4503 88.4084 31.4503ZM83.5084 22.4844H93.2736C93.2041 21.6504 92.9261 20.8858 92.4743 20.1908C92.0226 19.4957 91.4318 18.9397 90.702 18.5227C90.007 18.1057 89.2077 17.8972 88.3736 17.8972C87.5396 17.8972 86.7751 18.1057 86.08 18.5227C85.385 18.9397 84.7942 19.4957 84.3424 20.1908C83.9254 20.8511 83.6126 21.6504 83.5084 22.4844Z" fill="#011F11"/>
<path d="M105.784 15.6383C107.244 15.6383 108.565 15.9858 109.746 16.7156C110.928 17.4106 111.901 18.3837 112.596 19.5653C113.291 20.7468 113.673 22.1021 113.673 23.5269C113.673 24.6043 113.465 25.6468 113.047 26.5851C112.63 27.5234 112.074 28.3922 111.345 29.0872C110.615 29.817 109.781 30.373 108.843 30.7901C107.904 31.2071 106.862 31.4156 105.784 31.4156C104.638 31.4156 103.63 31.1376 102.761 30.5815C101.892 30.0255 101.232 29.3305 100.711 28.4269V30.9986H98.2085V8.54895H100.711V18.5574C101.232 17.6887 101.892 16.9589 102.761 16.4028C103.63 15.9163 104.638 15.6383 105.784 15.6383ZM105.784 28.983C106.757 28.983 107.661 28.7397 108.46 28.2532C109.26 27.7667 109.92 27.1064 110.406 26.2723C110.893 25.4383 111.136 24.5347 111.136 23.5269C111.136 22.5191 110.893 21.5809 110.406 20.7468C109.92 19.9128 109.26 19.2525 108.46 18.8007C107.661 18.3142 106.757 18.0709 105.784 18.0709C104.811 18.0709 103.943 18.3142 103.213 18.8007C102.483 19.2872 101.927 19.9475 101.545 20.7816C101.162 21.6156 100.954 22.5191 100.954 23.5269C100.954 24.5347 101.162 25.4383 101.545 26.2723C101.927 27.1064 102.518 27.7667 103.213 28.2184C103.943 28.7397 104.811 28.983 105.784 28.983Z" fill="#011F11"/>
<path d="M122.674 31.4503C121.283 31.4503 120.032 31.1028 118.92 30.373C117.774 29.678 116.87 28.705 116.21 27.5234C115.549 26.3418 115.202 25.0213 115.202 23.5617C115.202 22.4497 115.41 21.4418 115.793 20.4688C116.175 19.5305 116.731 18.6617 117.391 17.9667C118.086 17.2369 118.886 16.6809 119.789 16.2638C120.693 15.8468 121.666 15.6383 122.708 15.6383C123.82 15.6383 124.863 15.8816 125.836 16.3333C126.774 16.7851 127.574 17.4106 128.269 18.2447C128.929 19.044 129.45 19.9823 129.798 21.0596C130.145 22.1369 130.249 23.2837 130.18 24.5H117.947C118.052 25.3688 118.33 26.0986 118.781 26.7589C119.233 27.4191 119.789 27.9404 120.449 28.3227C121.144 28.705 121.909 28.9135 122.743 28.9135C123.647 28.9135 124.446 28.6702 125.176 28.2184C125.905 27.7667 126.496 27.1064 126.948 26.3071L129.52 26.8979C128.929 28.2184 128.025 29.3305 126.809 30.1645C125.558 31.0333 124.203 31.4503 122.674 31.4503ZM117.808 22.4844H127.574C127.504 21.6504 127.226 20.8858 126.774 20.1908C126.322 19.4957 125.732 18.9397 125.037 18.5227C124.342 18.1057 123.542 17.8972 122.708 17.8972C121.874 17.8972 121.11 18.1057 120.415 18.5227C119.72 18.9397 119.129 19.4957 118.677 20.1908C118.191 20.8511 117.913 21.6504 117.808 22.4844Z" fill="#011F11"/>
<path d="M132.647 31.068V16.09H135.15V17.9666C135.671 17.2716 136.366 16.7155 137.165 16.2985C137.964 15.8815 138.868 15.673 139.806 15.673C140.397 15.673 140.953 15.7425 141.474 15.9162L140.467 18.4184C140.05 18.2794 139.667 18.2098 139.25 18.2098C138.521 18.2098 137.825 18.3836 137.2 18.7659C136.574 19.1134 136.088 19.6347 135.706 20.2602C135.323 20.8857 135.15 21.5808 135.15 22.3106V31.068H132.647Z" fill="#011F11"/>
<path d="M143.386 31.068V16.09H145.888V17.9666C146.409 17.2716 147.069 16.7155 147.903 16.2985C148.703 15.8815 149.572 15.673 150.545 15.673C151.657 15.673 152.664 15.951 153.568 16.4723C154.472 17.0283 155.201 17.7233 155.757 18.6269C156.279 17.7233 157.008 17.0283 157.912 16.4723C158.816 15.9162 159.823 15.673 160.935 15.673C162.047 15.673 163.09 15.951 163.994 16.507C164.897 17.063 165.627 17.7928 166.183 18.6964C166.739 19.5999 167.017 20.6425 167.017 21.7545V31.068H164.515V22.3453C164.515 21.6155 164.341 20.9205 163.959 20.2949C163.611 19.6694 163.125 19.1481 162.499 18.7659C161.874 18.3836 161.213 18.2098 160.484 18.2098C159.754 18.2098 159.059 18.3836 158.468 18.7311C157.842 19.0786 157.391 19.5652 157.008 20.1907C156.661 20.8162 156.452 21.5113 156.452 22.3453V31.068H153.95V22.3453C153.95 21.546 153.777 20.8162 153.394 20.1907C153.047 19.5652 152.56 19.0786 151.935 18.7311C151.309 18.3836 150.649 18.2098 149.919 18.2098C149.189 18.2098 148.529 18.4184 147.903 18.7659C147.278 19.1481 146.791 19.6347 146.444 20.2949C146.096 20.9205 145.888 21.6155 145.888 22.3453V31.068H143.386Z" fill="#011F11"/>
<path d="M176.296 31.4503C174.906 31.4503 173.654 31.1028 172.542 30.373C171.396 29.678 170.492 28.705 169.832 27.5234C169.172 26.3418 168.824 25.0213 168.824 23.5617C168.824 22.4497 169.032 21.4418 169.415 20.4688C169.797 19.5305 170.353 18.6617 171.013 17.9667C171.708 17.2369 172.508 16.6809 173.411 16.2638C174.315 15.8468 175.288 15.6383 176.33 15.6383C177.477 15.6383 178.485 15.8816 179.458 16.3333C180.396 16.7851 181.23 17.4106 181.891 18.2447C182.551 19.044 183.072 19.9823 183.42 21.0596C183.767 22.1369 183.871 23.2837 183.802 24.5H171.569C171.674 25.3688 171.952 26.0986 172.403 26.7589C172.855 27.4191 173.411 27.9404 174.071 28.3227C174.767 28.705 175.531 28.9135 176.365 28.9135C177.269 28.9135 178.068 28.6702 178.798 28.2184C179.528 27.7667 180.118 27.1064 180.57 26.3071L183.142 26.8979C182.551 28.2184 181.647 29.3305 180.431 30.1645C179.18 31.0333 177.79 31.4503 176.296 31.4503ZM171.43 22.4844H181.196C181.126 21.6504 180.848 20.8858 180.396 20.1908C179.945 19.4957 179.354 18.9397 178.659 18.5227C177.964 18.1057 177.164 17.8972 176.33 17.8972C175.496 17.8972 174.732 18.1057 174.037 18.5227C173.342 18.9397 172.751 19.4957 172.299 20.1908C171.813 20.8511 171.535 21.6504 171.43 22.4844Z" fill="#011F11"/>
<path d="M186.095 31.0681V8.58374H188.598V31.0681H186.095Z" fill="#011F11"/>
<path d="M198.676 31.4503C197.286 31.4503 196.035 31.1028 194.923 30.373C193.776 29.678 192.872 28.705 192.212 27.5234C191.552 26.3418 191.204 25.0213 191.204 23.5617C191.204 22.4497 191.413 21.4418 191.795 20.4688C192.177 19.5305 192.733 18.6617 193.393 17.9667C194.088 17.2369 194.888 16.6809 195.791 16.2638C196.695 15.8468 197.668 15.6383 198.71 15.6383C200.101 15.6383 201.352 15.9858 202.464 16.7156C203.61 17.4106 204.514 18.3837 205.174 19.5653C205.835 20.7816 206.182 22.1021 206.182 23.5617C206.182 24.639 205.974 25.6816 205.591 26.6199C205.209 27.5582 204.653 28.3922 203.993 29.122C203.298 29.8518 202.498 30.4078 201.63 30.8248C200.691 31.2418 199.718 31.4503 198.676 31.4503ZM198.676 28.9135C199.614 28.9135 200.448 28.6702 201.213 28.1837C201.977 27.6972 202.568 27.0369 202.985 26.2376C203.402 25.4035 203.645 24.5347 203.645 23.5964C203.645 22.6582 203.437 21.7199 202.985 20.8858C202.533 20.0518 201.942 19.4262 201.178 18.9397C200.413 18.4532 199.579 18.2099 198.676 18.2099C197.772 18.2099 196.903 18.4532 196.139 18.9397C195.409 19.4262 194.784 20.0865 194.367 20.9206C193.949 21.7546 193.706 22.6234 193.706 23.5964C193.706 24.5695 193.949 25.5078 194.367 26.3071C194.818 27.1411 195.409 27.7667 196.174 28.2532C196.973 28.705 197.807 28.9135 198.676 28.9135Z" fill="#011F11"/>
<path d="M221.924 21.7199V31.0333H219.388V22.2759C219.388 21.5114 219.214 20.8163 218.832 20.2255C218.449 19.6 217.963 19.1135 217.337 18.7312C216.712 18.3837 216.017 18.1752 215.287 18.1752C214.557 18.1752 213.862 18.3489 213.237 18.7312C212.611 19.0787 212.124 19.6 211.742 20.2255C211.36 20.8511 211.186 21.5461 211.186 22.2759V31.0333H208.684V16.0553H211.186V17.9319C211.707 17.2369 212.403 16.6809 213.202 16.2638C214.001 15.8468 214.905 15.6383 215.843 15.6383C216.955 15.6383 217.998 15.9163 218.901 16.4723C219.839 17.0284 220.569 17.7582 221.09 18.6617C221.646 19.5653 221.924 20.6078 221.924 21.7199Z" fill="#011F11"/>
</svg>
