<svg width="48" height="48" viewBox="0 0 48 48" fill="none" xmlns="http://www.w3.org/2000/svg">
<path d="M24.0528 48H23.9472C10.7428 48 0 37.2572 0 24.0528V23.9472C0 10.7429 10.7428 0 23.9472 0H24.0528C37.2571 0 48 10.7429 48 23.9472V24.0528C48 37.2572 37.2571 48 24.0528 48ZM23.9472 1.62475C11.6381 1.62475 1.62475 11.6381 1.62475 23.9472V24.0528C1.62475 36.3619 11.6381 46.3753 23.9472 46.3753H24.0528C36.3619 46.3753 46.3752 36.3619 46.3752 24.0528V23.9472C46.3752 11.6381 36.3619 1.62475 24.0528 1.62475H23.9472Z" fill="#F7FCF7"/>
<path d="M27.2292 18.6163V23.6677H33.478L32.4886 30.4721H27.2292V46.1494C26.1748 46.2956 25.0959 46.372 24.0009 46.372C22.7368 46.372 21.4955 46.2712 20.2867 46.0763V30.4721H14.5237V23.6677H20.2867V17.4872C20.2867 13.6527 23.3948 10.543 27.2309 10.543V10.5462C27.2422 10.5462 27.252 10.543 27.2634 10.543H33.4796V16.4278H29.4178C28.2106 16.4278 27.2309 17.4075 27.2309 18.6147L27.2292 18.6163Z" fill="#F7FCF7"/>
</svg>
