<svg width="86" height="60" viewBox="0 0 86 60" fill="none" xmlns="http://www.w3.org/2000/svg">
<path d="M18.5575 59.999H0L0.156385 2.45001C0.156385 1.09469 1.25106 0 2.60638 0H16.2638C17.6192 0 18.7138 1.09469 18.7138 2.45001L18.5575 59.999Z" fill="#D4D4D4"/>
<path d="M52.284 59.9986H33.7266L33.8308 5.68154C33.8308 4.4826 34.8212 3.49219 36.0202 3.49219H51.7628C52.1276 3.49219 52.3883 3.80494 52.3883 4.11771L52.284 59.9986Z" fill="#D4D4D4"/>
<path d="M85.594 1.61607C63.3355 57.8097 52.2323 59.9991 52.2323 59.9991H33.6748C33.6748 59.9991 59.5301 30.4427 67.3493 0.990527C67.4536 0.573505 67.8185 0.260742 68.2876 0.260742H84.6557C85.3855 0.260742 85.8546 0.990533 85.594 1.61607Z" fill="white"/>
<path d="M51.45 3.49219C51.9192 3.49219 52.232 3.96133 52.0235 4.37835C29.6085 60.989 18.5053 59.9986 18.5053 59.9986H0C0 59.9986 25.3341 34.1954 33.466 5.05602C33.7266 4.11772 34.5607 3.49219 35.5511 3.49219H51.45Z" fill="white"/>
</svg>
