<svg width="48" height="48" viewBox="0 0 48 48" fill="none" xmlns="http://www.w3.org/2000/svg">
<path d="M24.0528 48H23.9472C10.7429 48 0 37.2572 0 24.0528V23.9472C0 10.7428 10.7429 0 23.9472 0H24.0528C37.2571 0 48 10.7428 48 23.9472V24.0528C48 37.2572 37.2571 48 24.0528 48ZM23.9472 1.62475C11.6381 1.62475 1.62475 11.6381 1.62475 23.9472V24.0528C1.62475 36.3619 11.6381 46.3753 23.9472 46.3753H24.0528C36.3619 46.3753 46.3752 36.3619 46.3752 24.0528V23.9472C46.3752 11.6381 36.3619 1.62475 24.0528 1.62475H23.9472Z" fill="#F7FCF7"/>
<path d="M31.1755 10.2461H16.8258C12.8614 10.2461 9.63623 13.4712 9.63623 17.4356V30.5636C9.63623 34.528 12.8614 37.7531 16.8258 37.7531H31.1755C35.1399 37.7531 38.3651 34.528 38.3651 30.5636V17.4356C38.3651 13.4712 35.1399 10.2461 31.1755 10.2461ZM12.1725 17.4356C12.1725 14.8701 14.2603 12.7823 16.8258 12.7823H31.1755C33.741 12.7823 35.8288 14.8701 35.8288 17.4356V30.5636C35.8288 33.1291 33.741 35.2169 31.1755 35.2169H16.8258C14.2603 35.2169 12.1725 33.1291 12.1725 30.5636V17.4356Z" fill="#F7FCF7"/>
<path d="M24.0007 30.6864C27.6873 30.6864 30.6882 27.6872 30.6882 23.999C30.6882 20.3108 27.6889 17.3115 24.0007 17.3115C20.3125 17.3115 17.3132 20.3108 17.3132 23.999C17.3132 27.6872 20.3125 30.6864 24.0007 30.6864ZM24.0007 19.8494C26.29 19.8494 28.1519 21.7113 28.1519 24.0006C28.1519 26.2899 26.29 28.1519 24.0007 28.1519C21.7114 28.1519 19.8495 26.2899 19.8495 24.0006C19.8495 21.7113 21.7114 19.8494 24.0007 19.8494Z" fill="#F7FCF7"/>
<path d="M31.3072 18.3927C32.2999 18.3927 33.1091 17.5853 33.1091 16.5909C33.1091 15.5966 32.3016 14.7891 31.3072 14.7891C30.3129 14.7891 29.5054 15.5966 29.5054 16.5909C29.5054 17.5853 30.3129 18.3927 31.3072 18.3927Z" fill="#F7FCF7"/>
</svg>
