<svg width="48" height="48" viewBox="0 0 48 48" fill="none" xmlns="http://www.w3.org/2000/svg">
<path d="M24.0528 48H23.9472C10.7429 48 0 37.2571 0 24.0528V23.9472C0 10.7429 10.7429 0 23.9472 0H24.0528C37.2571 0 48 10.7429 48 23.9472V24.0528C48 37.2571 37.2571 48 24.0528 48ZM23.9472 1.62475C11.6381 1.62475 1.62475 11.6381 1.62475 23.9472V24.0528C1.62475 36.3619 11.6381 46.3753 23.9472 46.3753H24.0528C36.3619 46.3753 46.3753 36.3619 46.3753 24.0528V23.9472C46.3753 11.6381 36.3619 1.62475 24.0528 1.62475H23.9472Z" fill="#F7FCF7"/>
<path d="M11.872 16.2258C11.2611 15.6587 10.9573 14.9568 10.9573 14.1217C10.9573 13.2866 11.2627 12.5538 11.872 11.9852C12.4829 11.4181 13.2693 11.1338 14.2328 11.1338C15.1962 11.1338 15.9518 11.4181 16.561 11.9852C17.1719 12.5522 17.4757 13.2655 17.4757 14.1217C17.4757 14.978 17.1703 15.6587 16.561 16.2258C15.9501 16.7928 15.1751 17.0771 14.2328 17.0771C13.2904 17.0771 12.4829 16.7928 11.872 16.2258ZM16.9623 19.4785V36.8633H11.4691V19.4785H16.9623Z" fill="#F7FCF7"/>
<path d="M35.2491 21.1958C36.4465 22.4956 37.0444 24.2796 37.0444 26.551V36.5562H31.8274V27.2561C31.8274 26.1107 31.5301 25.2203 30.937 24.5867C30.344 23.953 29.5446 23.6345 28.5438 23.6345C27.5429 23.6345 26.7435 23.9514 26.1505 24.5867C25.5574 25.2203 25.2601 26.1107 25.2601 27.2561V36.5562H20.0122V19.4297H25.2601V21.7011C25.7914 20.944 26.508 20.3461 27.4081 19.9058C28.3082 19.4654 29.3204 19.2461 30.4463 19.2461C32.4513 19.2461 34.0533 19.896 35.2491 21.1958Z" fill="#F7FCF7"/>
</svg>
