<svg width="48" height="48" viewBox="0 0 48 48" fill="none" xmlns="http://www.w3.org/2000/svg">
<path d="M24.0528 48H23.9472C10.7429 48 0 37.2572 0 24.0528V23.9472C0 10.7428 10.7429 0 23.9472 0H24.0528C37.2571 0 48 10.7428 48 23.9472V24.0528C48 37.2572 37.2571 48 24.0528 48ZM23.9472 1.62475C11.6381 1.62475 1.62475 11.6381 1.62475 23.9472V24.0528C1.62475 36.3619 11.6381 46.3753 23.9472 46.3753H24.0528C36.3619 46.3753 46.3753 36.3619 46.3753 24.0528V23.9472C46.3753 11.6381 36.3619 1.62475 24.0528 1.62475H23.9472Z" fill="#F7FCF7"/>
<path d="M10.2177 11.3115L20.9118 25.6093L10.1511 37.2344H12.5736L21.9956 27.057L29.6075 37.2344H37.8499L26.5546 22.1324L36.5712 11.3115H34.1487L25.4725 20.6847L18.4617 11.3115H10.2193H10.2177ZM13.7792 13.0955H17.5649L34.2852 35.4505H30.4995L13.7792 13.0955Z" fill="#F7FCF7"/>
</svg>
